:version 1.10
:name ASF
:units
  mass 1
  length 1
  angle deg
:documentation
  ASF file generated by Kaydara
:root
  axis xyz
  order  tx ty tz rx ry rz
  position 0 0 0
  orientation 0 0 0
:bonedata
  begin
    id 1
    name RightUpLegDummy
    direction -0.65628 -0.754516 0.00165102
    length 4.76918
    axis 0 0 0 xyz
  end
  begin
    id 2
    name RightUpLeg
    direction -0.145584 -0.923362 0.355256
    length 17.9961
    axis -24.7611 -13.1006 1.78531 xyz
    dof rx ry rz
  end
  begin
    id 3
    name RightLeg
    direction 0.263379 0.172355 -0.949171
    length 13.3386
    axis 89.6202 -21.1929 12.3855 xyz
    dof rx ry rz
  end
  begin
    id 4
    name RightFoot
    direction 0.224283 -0.968777 -0.105675
    length 5.86697
    axis 56.995 -39.6905 17.3365 xyz
    dof rx ry rz
  end
  begin
    id 5
    name RightToes
    direction -0.0806345 -0.9037 0.420506
    length 4.75197
    axis 146.825 -39.7828 17.6019 xyz
    dof rx ry rz
  end
  begin
    id 6
    name SpineDummy
    direction -3.39852e-014 1 9.33296e-014
    length 8.13779
    axis 0 0 0 xyz
  end
  begin
    id 7
    name Spine
    direction -0.156609 0.733703 0.661176
    length 7.14978
    axis 41.2365 5.68757 17.0844 xyz
    dof rx ry rz
  end
  begin
    id 8
    name Spine1
    direction 0 0 0
    length 0
    axis 42.8809 47.8308 -3.36039 xyz
    dof rx ry rz
  end
  begin
    id 9
    name HEadDummy
    direction 0.546431 0.701947 0.456819
    length 3.55512
    axis 42.8809 47.8308 -3.36039 xyz
  end
  begin
    id 10
    name HEad
    direction 0.23444 0.828559 0.508457
    length 7.35827
    axis 51.1864 49.2662 27.4903 xyz
    dof rx ry rz
  end
  begin
    id 11
    name LeftShoulder1Dummy
    direction 0.431183 0.475873 -0.766568
    length 2.49352
    axis 42.8809 47.8308 -3.36039 xyz
  end
  begin
    id 12
    name LeftShoulder1
    direction 0.268187 -0.383402 -0.883786
    length 4.48604
    axis -119.517 0.106469 35.1736 xyz
    dof rx ry rz
  end
  begin
    id 13
    name LeftArm
    direction 0.380567 -0.703221 -0.600541
    length 10.1142
    axis -5.41825 36.2925 7.8293 xyz
    dof rx ry rz
  end
  begin
    id 14
    name LeftForeArm
    direction 0.541071 -0.732356 -0.413396
    length 9.39839
    axis 4.65387 33.7604 7.81644 xyz
    dof rx ry rz
  end
  begin
    id 15
    name LeftHand
    direction 0.847511 -0.389379 -0.360707
    length 3.66142
    axis 7.65593 21.1436 -24.6758 xyz
    dof rx ry rz
  end
  begin
    id 16
    name RightShoulderDummy
    direction -0.692546 0.541855 0.476208
    length 2.49352
    axis 42.8809 47.8308 -3.36039 xyz
  end
  begin
    id 17
    name RightShoulder
    direction -0.870808 -0.316653 0.376065
    length 4.48602
    axis 141.571 51.133 -100.254 xyz
    dof rx ry rz
  end
  begin
    id 18
    name RightArm
    direction 0.366897 -0.87275 0.322015
    length 10.1142
    axis 92.3258 71.2036 138.917 xyz
    dof rx ry rz
  end
  begin
    id 19
    name RightForeArm
    direction 0.702487 -0.694568 0.155197
    length 9.39835
    axis 153.863 41.5092 -176.604 xyz
    dof rx ry rz
  end
  begin
    id 20
    name RightHand
    direction 0.79502 -0.601276 0.0800636
    length 3.66142
    axis 154.247 4.59222 142.9 xyz
    dof rx ry rz
  end
  begin
    id 21
    name LeftUpLegDummy
    direction 0.65628 -0.754516 0.00165102
    length 4.76919
    axis 0 0 0 xyz
  end
  begin
    id 22
    name LeftUpLeg
    direction -0.1277 -0.689368 0.713067
    length 17.9961
    axis -48.3385 -17.8675 0.791927 xyz
    dof rx ry rz
  end
  begin
    id 23
    name LeftLeg
    direction 0.109849 -0.991246 -0.0732378
    length 13.3386
    axis -2.05791 -7.30784 1.72042 xyz
    dof rx ry rz
  end
  begin
    id 24
    name LeftFoot
    direction 0.0448355 -0.272614 0.961078
    length 5.86697
    axis -18.7733 -7.89606 10.2113 xyz
    dof rx ry rz
  end
  begin
    id 25
    name LeftToes
    direction -0.18506 0.293668 0.937823
    length 4.75197
    axis 71.2267 -7.89606 10.2113 xyz
    dof rx ry rz
  end
:hierarchy
  begin
    root RightUpLegDummy SpineDummy LeftUpLegDummy
    RightUpLegDummy RightUpLeg
    RightUpLeg RightLeg
    RightLeg RightFoot
    RightFoot RightToes
    SpineDummy Spine
    Spine Spine1
    Spine1 HEadDummy LeftShoulder1Dummy RightShoulderDummy
    HEadDummy HEad
    LeftShoulder1Dummy LeftShoulder1
    LeftShoulder1 LeftArm
    LeftArm LeftForeArm
    LeftForeArm LeftHand
    RightShoulderDummy RightShoulder
    RightShoulder RightArm
    RightArm RightForeArm
    RightForeArm RightHand
    LeftUpLegDummy LeftUpLeg
    LeftUpLeg LeftLeg
    LeftLeg LeftFoot
    LeftFoot LeftToes
  end

:SAMPLES-PER-SECOND 30
:FULLY-SPECIFIED
:DEGREES
276
root  10.7967 34.9381 -19.9911 -59.3306 26.0129 -171.185
RightUpLeg  -27.892 1.17344 -54.0269
RightLeg  -54.8149 -29.645 14.0113
RightFoot  8.77216 8.94236 -21.6643
RightToes  -1.27222e-014 -6.36111e-015 6.36111e-015
Spine  -4.37394 -8.49913 3.58656
Spine1  -19.2221 -16.7085 19.16
HEad  -6.10221 -15.5048 -1.99916
LeftShoulder1  6.36111e-015 -1.33558e-015 6.49777e-015
LeftArm  -72.3388 -39.4815 37.314
LeftForeArm  -9.04463 29.3459 3.83221
LeftHand  6.42711 14.7082 3.07246
RightShoulder  -4.77083e-015 -6.36111e-015 -3.18055e-015
RightArm  -25.1441 35.9144 -41.2225
RightForeArm  -27.9073 -73.7862 -10.585
RightHand  19.3864 -20.7833 -45.3912
LeftUpLeg  29.1806 19.9996 65.3622
LeftLeg  -24.465 -5.56912 -1.98053
LeftFoot  9.85057 5.36078 -13.69
LeftToes  9.54166e-015 -1.91609e-011 -2.3878e-011
277
root  8.85661 34.7936 -20.5436 -55.4605 8.40511 -159.84
RightUpLeg  -24.8734 6.1 -51.9545
RightLeg  -50.7461 -32.9387 14.5302
RightFoot  8.73383 8.68196 -21.1479
RightToes  -1.27222e-014 -6.36111e-015 6.36111e-015
Spine  -0.835745 -4.05898 7.93774
Spine1  -16.9529 -16.2514 1.63792
HEad  -4.54679 -18.5777 0.465777
LeftShoulder1  6.36111e-015 -1.33558e-015 6.49777e-015
LeftArm  -74.2583 -36.5646 43.3256
LeftForeArm  -6.84369 25.0191 4.06179
LeftHand  11.1173 18.5886 13.8192
RightShoulder  -4.77083e-015 -6.36111e-015 -3.18055e-015
RightArm  -22.4211 32.9663 -38.2771
RightForeArm  -17.5937 -67.7795 -13.5054
RightHand  14.0261 -20.577 -31.7544
LeftUpLeg  26.6395 28.6598 63.8922
LeftLeg  -18.7564 -9.69904 -0.763865
LeftFoot  8.59654 5.59172 -14.7291
LeftToes  9.54166e-015 -1.91609e-011 -2.3878e-011
278
root  7.04909 34.7835 -20.5641 -57.7092 -8.20194 -148.682
RightUpLeg  -20.9259 11.2896 -50.2523
RightLeg  -47.871 -35.0849 14.4984
RightFoot  7.39684 8.70599 -21.0953
RightToes  -1.27222e-014 -6.36111e-015 6.36111e-015
Spine  2.75148 0.558347 9.59224
Spine1  -15.2879 -13.2507 -10.4212
HEad  -0.373839 -22.9235 1.58572
LeftShoulder1  6.36111e-015 -1.33558e-015 6.49777e-015
LeftArm  -76.8453 -35.8724 51.9705
LeftForeArm  -4.78634 17.8883 0.665247
LeftHand  13.0898 21.4715 15.16
RightShoulder  -4.77083e-015 -6.36111e-015 -3.18055e-015
RightArm  -19.2186 26.0183 -38.404
RightForeArm  -12.3015 -49.6769 -8.95865
RightHand  6.91944 -18.8262 -12.3233
LeftUpLeg  20.3725 36.8882 60.9866
LeftLeg  -17.4522 -9.23742 -0.885332
LeftFoot  8.62307 5.17141 -13.6243
LeftToes  9.54166e-015 -1.91609e-011 -2.3878e-011
279
root  5.48823 34.8312 -20.0897 -66.0081 -23.2673 -135.558
RightUpLeg  -16.2403 16.6305 -48.621
RightLeg  -45.343 -35.6726 13.5115
RightFoot  5.48196 9.61842 -22.8806
RightToes  -1.27222e-014 -6.36111e-015 6.36111e-015
Spine  4.163 4.51796 9.75128
Spine1  -13.7871 -9.38307 -15.6905
HEad  4.5224 -22.9955 3.26426
LeftShoulder1  6.36111e-015 -1.33558e-015 6.49777e-015
LeftArm  -80.5131 -35.3678 61.8916
LeftForeArm  -2.17194 11.7769 -1.73005
LeftHand  12.4422 22.6713 11.3297
RightShoulder  -4.77083e-015 -6.36111e-015 -3.18055e-015
RightArm  -14.8686 23.8687 -39.9489
RightForeArm  -13.2495 -31.148 -4.33879
RightHand  -0.451505 -11.7217 10.8115
LeftUpLeg  11.3647 42.9253 58.2686
LeftLeg  -19.3144 -6.94781 -1.37911
LeftFoot  5.01081 4.79784 -13.9111
LeftToes  9.54166e-015 -1.91609e-011 -2.3878e-011
280
root  4.18974 34.8619 -19.2335 -79.8197 -34.9138 -120.133
RightUpLeg  -9.87384 22.1977 -46.5683
RightLeg  -43.5609 -34.7445 12.0107
RightFoot  4.81622 10.1175 -23.9329
RightToes  -1.27222e-014 -6.36111e-015 6.36111e-015
Spine  4.45335 6.60977 10.421
Spine1  -14.2932 -7.81847 -16.7426
HEad  8.41633 -19.5082 6.3396
LeftShoulder1  6.36111e-015 -1.33558e-015 6.49777e-015
LeftArm  -82.4538 -32.8615 68.9459
LeftForeArm  4.06821 2.35602 -2.80883
LeftHand  13.649 22.4433 15.245
RightShoulder  -4.77083e-015 -6.36111e-015 -3.18055e-015
RightArm  -7.23867 29.4364 -39.9758
RightForeArm  -19.2996 -17.8147 -5.67128
RightHand  -2.83297 1.39118 22.7572
LeftUpLeg  -0.748474 46.0976 53.0306
LeftLeg  -23.9696 -6.55386 -1.65472
LeftFoot  2.25647 4.69167 -14.7073
LeftToes  9.54166e-015 -1.91609e-011 -2.3878e-011
281
root  3.16672 34.851 -17.7567 -98.8286 -42.1763 -101.62
RightUpLeg  -3.34497 27.2232 -44.0029
RightLeg  -41.054 -33.0654 9.81741
RightFoot  4.52284 10.0527 -23.7874
RightToes  -1.27222e-014 -6.36111e-015 6.36111e-015
Spine  5.62198 6.94052 11.9368
Spine1  -17.1278 -8.67232 -15.8821
HEad  9.69117 -17.0787 9.76329
LeftShoulder1  6.36111e-015 -1.33558e-015 6.49777e-015
LeftArm  -81.9839 -29.9462 74.9959
LeftForeArm  12.0902 -10.0928 -5.0528
LeftHand  15.5999 22.0708 21.4156
RightShoulder  -4.77083e-015 -6.36111e-015 -3.18055e-015
RightArm  -0.141592 34.0176 -42.2167
RightForeArm  -25.4976 -6.21046 -11.824
RightHand  -2.25949 7.4997 15.65
LeftUpLeg  -14.0943 46.9371 44.5756
LeftLeg  -28.1578 -7.50713 -2.12016
LeftFoot  2.94744 4.39807 -13.5196
LeftToes  9.54166e-015 -1.91609e-011 -2.3878e-011
